<?xml version="1.0" encoding="UTF-8" standalone="no"?><!DOCTYPE svg PUBLIC "-//W3C//DTD SVG 1.1//EN" "http://www.w3.org/Graphics/SVG/1.1/DTD/svg11.dtd"><svg width="100%" height="100%" viewBox="0 0 1080 1080" version="1.1" xmlns="http://www.w3.org/2000/svg" xmlns:xlink="http://www.w3.org/1999/xlink" xml:space="preserve" xmlns:serif="http://www.serif.com/" style="fill-rule:evenodd;clip-rule:evenodd;stroke-linejoin:round;stroke-miterlimit:2;"><g><circle cx="540" cy="540" r="535.298"/><g><g><g><g><path d="M845.794,348.343c1.963,3.102 3.889,6.243 5.774,9.424c31.94,53.849 47.918,114.107 47.918,180.791c0,66.699 -15.978,127.203 -47.918,181.514c-31.909,54.324 -75.025,97.459 -129.333,129.399c-54.327,31.905 -115.306,47.852 -182.956,47.852c-66.699,0 -127.203,-15.946 -181.514,-47.852c-54.324,-31.94 -97.459,-75.075 -129.399,-129.399c-31.905,-54.311 -47.852,-114.815 -47.852,-181.514c0,-66.683 15.946,-126.712 47.852,-180.07c31.94,-53.393 75.075,-96.05 129.399,-127.958c54.311,-31.89 114.815,-47.852 181.514,-47.852c67.649,0 128.628,15.732 182.956,47.197c2.904,1.68 5.774,3.392 8.615,5.138l-113.374,113.371c-23.511,-9.474 -49.573,-14.216 -78.196,-14.216c-38.12,0 -72.174,8.832 -102.195,26.484c-30.024,17.614 -53.393,41.672 -70.075,72.171c-16.651,30.464 -24.977,65.714 -24.977,105.735c0,40.036 8.326,75.78 24.977,107.245c16.683,31.43 40.052,55.963 70.075,73.612c30.021,17.617 64.075,26.418 102.195,26.418c39.067,0 73.615,-8.801 103.636,-26.418c30.024,-17.649 53.361,-42.182 70.009,-73.612c16.683,-31.465 25.043,-67.209 25.043,-107.245c0,-25.867 -3.59,-49.743 -10.764,-71.623l118.591,-118.591Z" style="fill:#fff;"/></g></g></g></g></g></svg>